<?xml version="1.0" encoding="UTF-8" standalone="no"?>
<svg
   viewBox="0 0 266.59998 245.77174"
   width="133.29999"
   height="122.88587"
   version="1.1"
   id="svg32"
   sodipodi:docname="go.svg"
   xmlns:inkscape="http://www.inkscape.org/namespaces/inkscape"
   xmlns:sodipodi="http://sodipodi.sourceforge.net/DTD/sodipodi-0.dtd"
   xmlns:xlink="http://www.w3.org/1999/xlink"
   xmlns="http://www.w3.org/2000/svg"
   xmlns:svg="http://www.w3.org/2000/svg">
  <sodipodi:namedview
     id="namedview32"
     pagecolor="#ffffff"
     bordercolor="#666666"
     borderopacity="1.0"
     inkscape:showpageshadow="2"
     inkscape:pageopacity="0.0"
     inkscape:pagecheckerboard="0"
     inkscape:deskcolor="#d1d1d1" />
  <defs
     id="defs24">
    <radialGradient
       cx="32"
       cy="32.5"
       r="30.775"
       gradientUnits="userSpaceOnUse"
       id="color-1">
      <stop
         offset="0"
         stop-color="#ffffff"
         stop-opacity="0"
         id="stop1" />
      <stop
         offset="0.219"
         stop-color="#ffffff"
         stop-opacity="0"
         id="stop2" />
      <stop
         offset="0.644"
         stop-color="#7e6e41"
         stop-opacity="0"
         id="stop3" />
      <stop
         offset="1"
         stop-color="#fff6e1"
         stop-opacity="0"
         id="stop4" />
    </radialGradient>
    <linearGradient
       x1="22.995001"
       y1="60.237999"
       x2="13.165"
       y2="30.110001"
       gradientUnits="userSpaceOnUse"
       id="color-2">
      <stop
         offset="0"
         stop-color="#ffffff"
         id="stop5" />
      <stop
         offset="0.232"
         stop-color="#ffffff"
         id="stop6" />
      <stop
         offset="0.644"
         stop-color="#ffffff"
         id="stop7" />
      <stop
         offset="1"
         stop-color="#ffffff"
         id="stop8" />
    </linearGradient>
    <linearGradient
       x1="19.534"
       y1="61.367001"
       x2="9.7049999"
       y2="31.239"
       gradientUnits="userSpaceOnUse"
       id="color-3">
      <stop
         offset="0"
         stop-color="#ffffff"
         id="stop9" />
      <stop
         offset="0.232"
         stop-color="#ffffff"
         id="stop10" />
      <stop
         offset="0.644"
         stop-color="#ffffff"
         id="stop11" />
      <stop
         offset="1"
         stop-color="#ffffff"
         id="stop12" />
    </linearGradient>
    <linearGradient
       x1="21.652"
       y1="60.675999"
       x2="11.822"
       y2="30.549"
       gradientUnits="userSpaceOnUse"
       id="color-4">
      <stop
         offset="0"
         stop-color="#ffffff"
         id="stop13" />
      <stop
         offset="0.232"
         stop-color="#ffffff"
         id="stop14" />
      <stop
         offset="0.644"
         stop-color="#ffffff"
         id="stop15" />
      <stop
         offset="1"
         stop-color="#ffffff"
         id="stop16" />
    </linearGradient>
    <linearGradient
       x1="36.993999"
       y1="55.671001"
       x2="27.164"
       y2="25.542999"
       gradientUnits="userSpaceOnUse"
       id="color-5">
      <stop
         offset="0"
         stop-color="#ffffff"
         id="stop17" />
      <stop
         offset="0.232"
         stop-color="#ffffff"
         id="stop18" />
      <stop
         offset="0.644"
         stop-color="#ffffff"
         id="stop19" />
      <stop
         offset="1"
         stop-color="#ffffff"
         id="stop20" />
    </linearGradient>
    <linearGradient
       x1="56.056"
       y1="49.451"
       x2="46.226002"
       y2="19.323999"
       gradientUnits="userSpaceOnUse"
       id="color-6">
      <stop
         offset="0"
         stop-color="#ffffff"
         id="stop21" />
      <stop
         offset="0.232"
         stop-color="#ffffff"
         id="stop22" />
      <stop
         offset="0.644"
         stop-color="#ffffff"
         id="stop23" />
      <stop
         offset="1"
         stop-color="#ffffff"
         id="stop24" />
    </linearGradient>
    <linearGradient
       inkscape:collect="always"
       xlink:href="#color-4"
       id="linearGradient35"
       gradientUnits="userSpaceOnUse"
       x1="21.652"
       y1="60.675999"
       x2="11.822"
       y2="30.549" />
    <linearGradient
       inkscape:collect="always"
       xlink:href="#color-4"
       id="linearGradient36"
       gradientUnits="userSpaceOnUse"
       x1="21.652"
       y1="60.675999"
       x2="11.822"
       y2="30.549" />
    <linearGradient
       inkscape:collect="always"
       xlink:href="#color-6"
       id="linearGradient37"
       gradientUnits="userSpaceOnUse"
       x1="56.056"
       y1="49.451"
       x2="46.226002"
       y2="19.323999" />
    <linearGradient
       inkscape:collect="always"
       xlink:href="#color-6"
       id="linearGradient38"
       gradientUnits="userSpaceOnUse"
       x1="56.056"
       y1="49.451"
       x2="46.226002"
       y2="19.323999" />
  </defs>
  <g
     inkscape:groupmode="layer"
     id="layer5"
     inkscape:label="Layer 1"
     style="display:none"
     transform="translate(2.4793053,-7.1141362)">
    <rect
       style="fill:#000000;stroke-width:0"
       id="rect32"
       width="272.27451"
       height="254.16518"
       x="-1.3155024"
       y="3.3572841" />
  </g>
  <g
     fill="none"
     fill-rule="nonzero"
     stroke="none"
     stroke-width="1"
     stroke-linecap="butt"
     stroke-linejoin="miter"
     stroke-miterlimit="10"
     stroke-dasharray="none"
     stroke-dashoffset="0"
     font-family="none"
     font-weight="none"
     font-size="none"
     text-anchor="none"
     style="mix-blend-mode:normal"
     id="g32"
     transform="matrix(1.0414057,0,0,1.0414057,1.1246733e-4,-12.496869)">
    <g
       transform="scale(4)"
       id="g31">
      <path
         d="m 0,40.017 v 0 C 0.009,42.772 2.245,45 5,45 h 3 c 2.761,0 5,2.238 5,5 v 0 c 0,2.762 -2.238,5 -5,5 H 7.434 C 5.52,55 4,56.52 4,58.395 v 0 C 4,60.386 5.614,62 7.605,62 H 56.5 c 1.926,0 3.49,-1.556 3.5,-3.483 V 58.5 C 60.01,56.57 58.448,55 56.517,55 H 56 c -2.209,0 -4,-1.791 -4,-4 v 0 c 0,-2.209 1.791,-4 4,-4 h 3 c 2.761,0 5,-2.239 5,-5 v 0 c 0,-2.761 -2.239,-5 -5,-5 v 0 c -1.657,0 -3,-1.343 -3,-3 v 0 c 0,-1.657 1.343,-3 3,-3 h -0.5 c 3.038,0 5.5,-2.462 5.5,-5.5 v 0 C 64,22.462 61.538,20 58.5,20 h -2.904 c -2.209,0 -4,-1.791 -4,-4 v 0 c 0,-2.209 1.791,-4 4,-4 H 58.5 C 60.985,12 63,9.985 63,7.5 v 0 C 63,5.015 60.985,3 58.5,3 H 31 5 C 2.791,3 1,4.791 1,7 v 0 c 0,2.209 1.791,4 4,4 h 12.5 c 1.933,0 3.5,1.567 3.5,3.5 v 0 C 21,16.433 19.433,18 17.5,18 H 5 c -2.209,0 -4,1.791 -4,4 v 0 c 0,2.209 1.791,4 4,4 h 1.5 c 2.485,0 4.5,2.015 4.5,4.5 v 0 C 11,32.985 8.985,35 6.5,35 H 5 c -2.768,0 -5.009,2.249 -5,5.017 z"
         fill="url(#color-1)"
         id="path24"
         style="fill:url(#color-1)" />
      <path
         d="m 6.528,27.579 c -0.117,0 -0.146,-0.058 -0.088,-0.146 l 0.613,-0.789 c 0.058,-0.088 0.204,-0.146 0.321,-0.146 h 10.429 c 0.117,0 0.146,0.088 0.088,0.175 l -0.497,0.76 c -0.058,0.088 -0.204,0.175 -0.292,0.175 z"
         fill="url(#color-2)"
         id="path25"
         style="fill:url(#color-2)" />
      <path
         d="M 2.117,30.267 C 2,30.267 1.971,30.209 2.029,30.121 L 2.642,29.332 C 2.7,29.244 2.846,29.186 2.963,29.186 h 13.321 c 0.117,0 0.175,0.088 0.146,0.175 l -0.234,0.701 c -0.029,0.117 -0.146,0.175 -0.263,0.175 z"
         fill="url(#color-3)"
         id="path26"
         style="fill:url(#color-3)" />
      <g
         fill="url(#color-4)"
         id="g27"
         style="fill:url(#linearGradient36)">
        <path
           d="m 9.186,32.954 c -0.117,0 -0.146,-0.088 -0.088,-0.175 l 0.409,-0.73 c 0.058,-0.088 0.175,-0.175 0.292,-0.175 h 5.843 c 0.117,0 0.175,0.088 0.175,0.204 l -0.058,0.701 c 0,0.117 -0.117,0.204 -0.204,0.204 z"
           id="path27"
           style="fill:url(#linearGradient35)" />
      </g>
      <g
         id="g30">
        <path
           d="m 39.51,27.053 c -1.84,0.467 -3.097,0.818 -4.908,1.285 -0.438,0.117 -0.467,0.146 -0.847,-0.292 -0.438,-0.497 -0.76,-0.818 -1.373,-1.11 -1.84,-0.906 -3.622,-0.643 -5.288,0.438 -1.986,1.285 -3.009,3.184 -2.98,5.55 0.029,2.337 1.636,4.265 3.944,4.586 1.986,0.263 3.652,-0.438 4.966,-1.928 0.263,-0.321 0.497,-0.672 0.789,-1.081 -1.052,0 -2.366,0 -5.638,0 -0.613,0 -0.76,-0.38 -0.555,-0.876 0.38,-0.906 1.081,-2.425 1.49,-3.184 0.088,-0.175 0.292,-0.467 0.73,-0.467 1.49,0 6.982,0 10.634,0 -0.058,0.789 -0.058,1.578 -0.175,2.366 -0.321,2.103 -1.11,4.031 -2.395,5.726 -2.103,2.775 -4.849,4.499 -8.326,4.966 -2.863,0.38 -5.521,-0.175 -7.858,-1.928 -2.162,-1.636 -3.389,-3.798 -3.71,-6.485 -0.38,-3.184 0.555,-6.047 2.483,-8.559 2.074,-2.717 4.82,-4.44 8.18,-5.054 2.746,-0.497 5.375,-0.175 7.741,1.431 1.548,1.022 2.658,2.425 3.389,4.119 0.174,0.264 0.057,0.41 -0.293,0.497 z"
           fill="url(#color-5)"
           id="path28"
           style="fill:url(#color-5)" />
        <g
           fill="url(#color-6)"
           id="g29"
           style="fill:url(#linearGradient38)">
          <path
             d="m 49.179,43.208 c -2.658,-0.058 -5.083,-0.818 -7.128,-2.571 -1.724,-1.49 -2.804,-3.389 -3.155,-5.638 -0.526,-3.301 0.38,-6.222 2.366,-8.822 2.133,-2.804 4.703,-4.265 8.18,-4.879 2.98,-0.526 5.784,-0.234 8.326,1.49 2.308,1.578 3.739,3.71 4.119,6.515 0.497,3.944 -0.643,7.157 -3.36,9.903 -1.928,1.957 -4.294,3.184 -7.011,3.739 -0.789,0.146 -1.577,0.176 -2.337,0.263 z m 6.953,-11.802 c -0.029,-0.38 -0.029,-0.672 -0.088,-0.964 -0.526,-2.892 -3.184,-4.528 -5.959,-3.885 -2.717,0.613 -4.47,2.337 -5.112,5.083 -0.526,2.279 0.584,4.586 2.688,5.521 1.607,0.701 3.213,0.613 4.762,-0.175 2.307,-1.198 3.563,-3.068 3.709,-5.58 z"
             id="path29"
             style="fill:url(#linearGradient37)" />
        </g>
      </g>
    </g>
  </g>
</svg>
