<?xml version="1.0" encoding="UTF-8" standalone="no"?>
<svg
   viewBox="0 0 30 30"
   width="120"
   height="120"
   version="1.1"
   id="svg1"
   sodipodi:docname="icons8-linkedin-120.svg"
   inkscape:export-filename="linkedIn.svg"
   inkscape:export-xdpi="96"
   inkscape:export-ydpi="96"
   inkscape:version="1.3 (1:1.3+202307231459+0e150ed6c4)"
   xmlns:inkscape="http://www.inkscape.org/namespaces/inkscape"
   xmlns:sodipodi="http://sodipodi.sourceforge.net/DTD/sodipodi-0.dtd"
   xmlns="http://www.w3.org/2000/svg"
   xmlns:svg="http://www.w3.org/2000/svg">
  <defs
     id="defs1" />
  <sodipodi:namedview
     id="namedview1"
     pagecolor="#ffffff"
     bordercolor="#666666"
     borderopacity="1.0"
     inkscape:showpageshadow="2"
     inkscape:pageopacity="0.0"
     inkscape:pagecheckerboard="0"
     inkscape:deskcolor="#d1d1d1"
     inkscape:zoom="4.25"
     inkscape:cx="59.882353"
     inkscape:cy="60"
     inkscape:window-width="1366"
     inkscape:window-height="711"
     inkscape:window-x="0"
     inkscape:window-y="0"
     inkscape:window-maximized="1"
     inkscape:current-layer="svg1" />
  <g
     inkscape:groupmode="layer"
     id="layer4"
     inkscape:label="Layer 1"
     style="display:none">
    <rect
       style="fill:#000000;fill-opacity:1;stroke:none;stroke-width:0.250392"
       id="rect1"
       width="30.730572"
       height="29.006647"
       x="-0.36989728"
       y="0.45057857" />
  </g>
  <path
     d="M 27.353404,0.11847373 H 2.8419668 c -1.5047299,0 -2.72349307,1.21876317 -2.72349307,2.72349307 V 27.353404 c 0,1.504729 1.21876317,2.723493 2.72349307,2.723493 H 27.353404 c 1.504729,0 2.723493,-1.218764 2.723493,-2.723493 V 2.8419668 c 0,-1.5047299 -1.218764,-2.72349307 -2.723493,-2.72349307 z M 9.588059,24.629911 H 5.5709068 V 11.704213 H 9.588059 Z M 7.5386305,9.8563231 c -1.295021,0 -2.342204,-1.0499066 -2.342204,-2.3422041 0,-1.2922974 1.0485448,-2.3408422 2.342204,-2.3408422 1.2909357,0 2.3408423,1.0499065 2.3408423,2.3408422 0,1.2922975 -1.0499066,2.3422041 -2.3408423,2.3422041 z M 24.635358,24.629911 h -4.014429 v -6.285822 c 0,-1.499283 -0.02724,-3.427516 -2.087558,-3.427516 -2.09028,0 -2.411653,1.632734 -2.411653,3.318577 v 6.394761 H 12.10729 V 11.704213 h 3.853742 v 1.766185 h 0.05447 c 0.536528,-1.015863 1.846528,-2.087557 3.800634,-2.087557 4.067538,0 4.819222,2.677194 4.819222,6.157818 z"
     id="path1"
     style="fill:#ffffff;fill-opacity:1;stroke:none;stroke-width:1.36174" />
</svg>
