<?xml version="1.0" encoding="UTF-8" standalone="no"?>
<svg
   viewBox="0 0 50 50"
   width="50"
   height="50"
   version="1.1"
   id="svg1"
   sodipodi:docname="python.svg"
   inkscape:export-filename="python.svg"
   inkscape:export-xdpi="192"
   inkscape:export-ydpi="192"
   xmlns:inkscape="http://www.inkscape.org/namespaces/inkscape"
   xmlns:sodipodi="http://sodipodi.sourceforge.net/DTD/sodipodi-0.dtd"
   xmlns="http://www.w3.org/2000/svg"
   xmlns:svg="http://www.w3.org/2000/svg">
  <defs
     id="defs1" />
  <sodipodi:namedview
     id="namedview1"
     pagecolor="#ffffff"
     bordercolor="#666666"
     borderopacity="1.0"
     inkscape:showpageshadow="2"
     inkscape:pageopacity="0.0"
     inkscape:pagecheckerboard="0"
     inkscape:deskcolor="#d1d1d1" />
  <path
     d="m 24.485396,0.31989064 c -9.281437,0 -11.20274,4.80893966 -11.20274,7.59394216 v 5.2521982 h 10.669276 v 1.070511 H 8.0480433 c -3.5216942,0 -7.5685173,2.785004 -7.5685173,10.705117 0,7.920115 4.0468231,10.705116 7.5685173,10.705116 h 6.3015407 v -6.423069 c 0,-2.35429 1.921303,-4.282047 4.26771,-4.282047 h 12.803131 c 1.812943,0 3.200782,-1.392502 3.200782,-3.211535 V 7.9138328 c 0,-3.7467908 -3.521693,-7.59394216 -10.135811,-7.59394216 z M 19.684222,5.672449 c 1.175288,0 2.133855,0.9617884 2.133855,2.1410234 0,1.179236 -0.958567,2.1410233 -2.133855,2.1410233 -1.175287,0 -2.133855,-0.9617873 -2.133855,-2.1410233 0,-1.179235 0.958568,-2.1410234 2.133855,-2.1410234 z m 16.003913,8.564093 v 7.493582 c 0,2.35429 -1.921303,4.282046 -4.26771,4.282046 H 18.617294 c -1.812943,0 -3.200782,1.392502 -3.200782,3.211536 v 12.745779 c 0,3.746791 3.521694,7.593942 10.135811,7.593942 9.281437,0 11.20274,-4.808938 11.20274,-7.593942 V 36.717288 H 26.085787 v -1.070513 h 15.903889 c 3.521694,0 7.568517,-2.785001 7.568517,-10.705116 0,-7.920113 -4.046823,-10.705117 -7.568517,-10.705117 z m -5.334638,25.692281 c 1.175288,0 2.133855,0.961788 2.133855,2.141023 0,1.179236 -0.958567,2.141023 -2.133855,2.141023 -1.175287,0 -2.133855,-0.961787 -2.133855,-2.141023 0,-1.179235 0.958568,-2.141023 2.133855,-2.141023 z"
     id="path1"
     style="fill:#ffffff;fill-opacity:1;stroke:none;stroke-width:0;stroke-dasharray:none;stroke-opacity:1" />
</svg>
